<?xml version="1.0" encoding="iso-8859-1"?>
<!-- Generator: Adobe Illustrator 19.0.0, SVG Export Plug-In . SVG Version: 6.00 Build 0)  -->
<svg version="1.1" id="Layer_1" xmlns="http://www.w3.org/2000/svg" xmlns:xlink="http://www.w3.org/1999/xlink" x="0px" y="0px"
	 viewBox="0 0 512.001 512.001" style="enable-background:new 0 0 512.001 512.001;" xml:space="preserve">
<g>
	<g>
		<path d="M256.001,179.569c-18.364,0-40.401-0.589-64.673-2.387v73.276l64.673-25.035l64.673,25.035v-73.261
			C300.682,178.683,279.101,179.569,256.001,179.569z"/>
	</g>
</g>
<g>
	<g>
		<path d="M512.001,84.618l-13.844-28.252c-0.213,0.104-21.74,10.469-62.171,20.699c-67.612,17.109-135.195,20.7-179.986,20.7
			c-81.149,0-142.667-11.256-179.986-20.7C35.582,66.835,14.055,56.469,13.869,56.378L0,84.619
			c0.655,0.322,11.682,5.682,32.536,12.584l-3.159,15.88c10.462,3.901,26.108,9.128,46.637,14.323
			c19.865,5.027,46.59,10.567,79.48,14.65l3.626-18.229c11.074,1.26,21.841,2.246,32.207,3.015v18.807
			c19.884,1.535,41.473,2.457,64.673,2.457c18.278,0,40.352-0.599,64.673-2.47v-18.78c11.251-0.836,21.99-1.863,32.206-3.032
			l3.627,18.231c25.525-3.153,52.498-7.823,79.48-14.651c20.527-5.194,36.171-10.42,46.637-14.323l-3.159-15.88
			C500.318,90.3,511.346,84.94,512.001,84.618z"/>
	</g>
</g>
<g>
	<g>
		<path d="M67.009,157.58c-18.31-4.677-32.957-9.37-43.844-13.261l-14.82,74.504l68.314-11.937l58.546,37.171l14.136-71.068
			C122.892,169.641,94.971,164.723,67.009,157.58z"/>
	</g>
</g>
<g>
	<g>
		<path d="M488.835,144.318c-10.887,3.892-25.535,8.585-43.844,13.263c-20.655,5.276-48.348,11.084-82.333,15.406l14.136,71.07
			l58.546-37.171l68.314,11.937L488.835,144.318z"/>
	</g>
</g>
<g>
	<g>
		<path d="M256.001,384.747c-18.364,0-40.401-0.589-64.673-2.388v73.276l64.673-25.035l64.673,25.035v-73.26
			C300.682,383.861,279.101,384.747,256.001,384.747z"/>
	</g>
</g>
<g>
	<g>
		<path d="M67.009,362.758c-18.31-4.677-32.957-9.37-43.844-13.263l-14.82,74.505l68.314-11.937l58.546,37.171l14.136-71.068
			C122.892,374.819,94.971,369.901,67.009,362.758z"/>
	</g>
</g>
<g>
	<g>
		<path d="M488.835,349.496c-10.887,3.892-25.535,8.585-43.844,13.262c-20.655,5.276-48.348,11.084-82.333,15.406l14.136,71.069
			l58.546-37.171l68.314,11.937L488.835,349.496z"/>
	</g>
</g>
<g>
	<g>
		<path d="M512,289.797l-13.844-28.252c-0.213,0.104-21.74,10.469-62.171,20.699c-67.612,17.109-135.195,20.7-179.986,20.7
			c-81.149,0-142.668-11.256-179.986-20.7c-40.432-10.231-61.959-20.596-62.146-20.688L0,289.797
			c0.655,0.322,11.682,5.682,32.536,12.584l-3.159,15.88c10.462,3.901,26.108,9.128,46.637,14.323
			c19.865,5.027,46.59,10.567,79.48,14.65l3.626-18.229c11.074,1.26,21.841,2.246,32.207,3.015v18.807
			c19.884,1.535,41.473,2.457,64.673,2.457c18.278,0,40.352-0.599,64.673-2.47v-18.78c11.251-0.836,21.99-1.863,32.206-3.032
			l3.627,18.231c25.525-3.153,52.498-7.823,79.48-14.651c20.527-5.194,36.171-10.42,46.637-14.323l-3.159-15.88
			C500.318,295.479,511.345,290.119,512,289.797z"/>
	</g>
</g>
<g>
</g>
<g>
</g>
<g>
</g>
<g>
</g>
<g>
</g>
<g>
</g>
<g>
</g>
<g>
</g>
<g>
</g>
<g>
</g>
<g>
</g>
<g>
</g>
<g>
</g>
<g>
</g>
<g>
</g>
</svg>
